HIERARCHY
ROOT root
{
	OFFSET 0.000000 0.000000 0.000000
	CHANNELS 6 Xposition Yposition Zposition Zrotation Yrotation Xrotation
	JOINT lhip
	{
		OFFSET 0.058581 -0.082280 -0.017664
		CHANNELS 3 Zrotation Yrotation Xrotation
		JOINT lknee
		{
			OFFSET 0.043451 -0.386469 0.008037
			CHANNELS 3 Zrotation Yrotation Xrotation
			JOINT lankle
			{
				OFFSET -0.014790 -0.426874 -0.037428
				CHANNELS 3 Zrotation Yrotation Xrotation
				JOINT ltoe
				{
					OFFSET 0.041054 -0.060286 0.122042
					CHANNELS 3 Zrotation Yrotation Xrotation
					End Site
					{
						OFFSET 0.000000 0.000000 0.000000
					}
				}
			}
		}
	}
	JOINT rhip
	{
		OFFSET -0.060310 -0.090513 -0.013543
		CHANNELS 3 Zrotation Yrotation Xrotation
		JOINT rknee
		{
			OFFSET -0.043257 -0.383688 -0.004843
			CHANNELS 3 Zrotation Yrotation Xrotation
			JOINT rankle
			{
				OFFSET 0.019056 -0.420046 -0.034562
				CHANNELS 3 Zrotation Yrotation Xrotation
				JOINT rtoe
				{
					OFFSET -0.034840 -0.062106 0.130323
					CHANNELS 3 Zrotation Yrotation Xrotation
					End Site
					{
						OFFSET 0.000000 0.000000 0.000000
					}
				}
			}
		}
	}
	JOINT lowerback
	{
		OFFSET 0.004439 0.124404 -0.038385
		CHANNELS 3 Zrotation Yrotation Xrotation
		JOINT upperback
		{
			OFFSET 0.004488 0.137956 0.026820
			CHANNELS 3 Zrotation Yrotation Xrotation
			JOINT chest
			{
				OFFSET -0.002265 0.056032 0.002855
				CHANNELS 3 Zrotation Yrotation Xrotation
				JOINT lowerneck
				{
					OFFSET -0.013390 0.211636 -0.033468
					CHANNELS 3 Zrotation Yrotation Xrotation
					JOINT upperneck
					{
						OFFSET 0.010113 0.088937 0.050410
						CHANNELS 3 Zrotation Yrotation Xrotation
						End Site
						{
							OFFSET 0.000000 0.000000 0.000000
						}
					}
				}
				JOINT lclavicle
				{
					OFFSET 0.071702 0.114000 -0.018898
					CHANNELS 3 Zrotation Yrotation Xrotation
					JOINT lshoulder
					{
						OFFSET 0.122921 0.045205 -0.019046
						CHANNELS 3 Zrotation Yrotation Xrotation
						JOINT lelbow
						{
							OFFSET 0.255332 -0.015649 -0.022946
							CHANNELS 3 Zrotation Yrotation Xrotation
							JOINT lwrist
							{
								OFFSET 0.265709 0.012698 -0.007375
								CHANNELS 3 Zrotation Yrotation Xrotation
								End Site
								{
									OFFSET 0.000000 0.000000 0.000000
								}
							}
						}
					}
				}
				JOINT rclavicle
				{
					OFFSET -0.082954 0.112472 -0.023707
					CHANNELS 3 Zrotation Yrotation Xrotation
					JOINT rshoulder
					{
						OFFSET -0.113228 0.046853 -0.008472
						CHANNELS 3 Zrotation Yrotation Xrotation
						JOINT relbow
						{
							OFFSET -0.260127 -0.014369 -0.031269
							CHANNELS 3 Zrotation Yrotation Xrotation
							JOINT rwrist
							{
								OFFSET -0.269108 0.006794 -0.006027
								CHANNELS 3 Zrotation Yrotation Xrotation
								End Site
								{
									OFFSET 0.000000 0.000000 0.000000
								}
							}
						}
					}
				}
			}
		}
	}
}
MOTION
Frames: 14
Frame Time: 0.033333
1.941836 0.641142 0.983902 -95.373359 2.796961 79.474503 2.069954 -3.406120 3.929453 -2.700207 -5.512052 21.914252 4.017013 14.720103 -26.745717 0.000000 -0.000000 0.000000 5.130376 -1.148345 7.530469 2.764367 -1.479528 13.033279 2.048829 -3.619746 -17.399078 0.000000 -0.000000 0.000000 0.627076 3.167200 9.452827 3.425054 -2.068409 3.307748 1.040923 0.653744 2.488112 1.456149 0.120781 7.937068 -0.131404 -6.662211 13.548419 -23.495207 -0.410589 3.416002 -64.194102 -8.101083 11.473756 13.260678 -29.212684 12.247846 -5.806612 -11.080500 -0.616171 24.215363 -0.668880 3.036463 61.095718 -1.243722 4.892165 -23.051317 20.784579 -5.595815 4.035237 4.472154 -4.634106 
1.943704 0.640494 0.984105 -95.659774 2.648603 79.534960 1.865344 -3.335236 3.964536 -2.663500 -5.497997 21.514104 4.296204 14.962375 -26.667994 0.000000 -0.000000 0.000000 5.172353 -0.459324 7.124043 2.696536 -1.323291 13.403476 2.271353 -4.181100 -17.702302 0.000000 -0.000000 0.000000 0.222535 2.891164 9.422068 3.616106 -2.233553 3.158912 1.101980 0.453174 2.678039 1.701349 0.509278 8.044497 -0.143981 -6.398356 14.117021 -23.262024 -0.447312 3.439239 -64.700801 -8.382792 12.091540 13.433066 -29.066311 12.574099 -3.684742 -11.577141 -0.644756 24.256257 -0.888641 3.053886 61.544790 -1.409180 5.072255 -23.537728 20.562346 -5.924813 2.469696 4.508238 -4.409263 
1.945712 0.639511 0.984482 -95.967793 2.513583 79.782687 1.751200 -3.189166 3.815226 -2.671825 -5.393862 20.980786 4.410372 15.071807 -26.446280 0.000000 -0.000000 0.000000 5.026473 -0.441928 6.438240 2.616758 -1.046268 13.833064 2.272701 -4.033888 -17.935962 0.000000 -0.000000 0.000000 0.087384 2.801034 9.353645 3.657564 -2.301992 2.812676 1.049027 0.286054 2.718808 1.941142 1.140783 8.265508 -0.102337 -5.909497 15.186385 -23.280613 -0.431866 3.615098 -65.133112 -8.667444 12.429486 13.778901 -28.969868 12.742929 -2.279017 -12.086137 -0.272879 24.490617 -1.213753 3.120889 61.870024 -1.422378 5.065077 -23.791486 19.668911 -6.172326 1.271106 4.659176 -4.252536 
1.946921 0.638405 0.985257 -96.074973 2.443106 79.643765 1.769953 -2.906274 4.275541 -2.650241 -5.276602 20.049009 4.409823 14.870638 -25.768130 0.000000 -0.000000 0.000000 4.984014 -0.193855 6.591324 2.485454 -1.070492 13.666202 2.234801 -4.005992 -17.862493 0.000000 -0.000000 0.000000 0.027601 2.510842 9.523235 3.716981 -2.243556 2.521903 1.079207 0.237769 2.678103 2.090408 1.507133 9.202389 -0.239064 -5.690223 17.343964 -23.476716 -0.020672 3.980166 -65.915788 -9.161575 12.466573 14.111586 -29.195159 12.605778 -2.204170 -12.660615 -0.019846 24.695469 -1.564848 3.408772 62.319235 -1.522001 4.767949 -23.817428 17.729244 -6.039023 1.051480 5.008794 -3.884386 
1.947376 0.637988 0.985335 -96.084857 2.411857 79.642528 1.771887 -2.808110 4.306341 -2.633675 -5.199072 19.848067 4.486351 14.774613 -25.517102 0.000000 -0.000000 0.000000 4.914709 -0.270958 6.565798 2.468956 -0.977260 13.651499 2.212439 -3.983023 -17.830981 0.000000 -0.000000 0.000000 0.064611 2.434030 9.575479 3.685650 -2.182495 2.347659 1.070622 0.212881 2.648709 2.002422 1.916590 9.285952 -0.350192 -4.999875 18.071817 -23.523194 0.128846 4.188766 -66.187560 -9.249525 12.434538 14.024274 -29.323135 12.853014 -2.053150 -12.608297 -0.220413 24.745582 -1.644326 3.699682 62.470870 -1.469170 4.686336 -23.791104 17.077835 -5.931017 0.973462 5.075309 -3.557257 
1.948497 0.637121 0.985586 -96.059870 2.286341 79.584977 1.732284 -2.733135 4.527352 -2.774788 -5.195269 19.206192 4.410025 14.582529 -24.960373 0.000000 -0.000000 0.000000 4.652997 -0.364127 6.502977 2.509440 -0.992617 13.702270 2.256239 -3.851829 -17.655367 0.000000 -0.000000 0.000000 0.103464 2.406556 9.745933 3.689496 -2.106329 2.251486 0.986001 0.224270 2.605807 1.958020 1.701575 10.014252 -0.605180 -5.131344 19.518892 -23.753568 0.494327 4.500032 -66.502707 -9.355015 12.527631 13.800843 -29.772600 12.930422 -2.167611 -12.502251 -0.720169 24.886483 -1.886463 4.004695 62.723375 -1.541361 4.576865 -23.722743 16.355336 -5.603579 1.340360 5.329467 -3.097454 
1.949114 0.636459 0.985894 -95.978924 2.162842 79.557533 1.662011 -2.499299 4.707952 -2.797752 -5.360660 18.645775 4.295836 14.334952 -24.481315 0.000000 -0.000000 0.000000 4.416952 -0.467303 6.508454 2.512235 -1.076511 13.595089 2.325617 -3.684567 -17.441379 0.000000 -0.000000 0.000000 0.136835 2.349426 9.765296 3.616574 -2.006022 2.255597 0.890536 0.197998 2.540220 2.001798 1.917366 10.908218 -0.662882 -4.878628 20.536238 -23.888178 0.892820 4.786351 -66.819326 -9.079517 12.489336 13.768843 -30.305064 13.224688 -2.773723 -12.570105 -0.851949 24.859616 -2.129747 4.264392 63.184668 -1.611689 4.548930 -23.585964 15.831007 -5.152019 1.981442 5.006334 -2.918740 
1.949647 0.636025 0.986294 -96.013343 1.925502 79.755100 1.505658 -2.320316 4.926646 -2.787448 -5.344926 17.594642 4.358018 14.130979 -23.960178 0.000000 -0.000000 0.000000 4.157267 -0.379598 6.283830 2.412726 -1.132048 13.506886 2.479538 -3.517851 -17.205523 0.000000 -0.000000 0.000000 -0.011553 2.359688 9.537424 3.547486 -1.819925 2.322517 0.809167 0.240123 2.634645 2.222287 1.837545 11.715538 -0.864314 -5.016251 21.198464 -24.040886 1.521589 4.882206 -67.035232 -8.621357 12.563316 13.862976 -30.946366 13.574870 -3.737208 -12.484745 -0.690665 24.904260 -2.477576 4.270005 63.657891 -1.645815 4.660201 -23.687156 15.438759 -4.774149 3.348821 4.454390 -2.856845 
1.950138 0.635474 0.986927 -95.926004 1.647240 79.992545 1.333686 -2.044693 5.356258 -2.672322 -5.281333 15.970771 4.331597 13.572550 -23.162777 0.000000 -0.000000 0.000000 3.790570 -0.445178 6.016950 2.357674 -1.236060 13.358575 2.648869 -3.330662 -16.816956 0.000000 -0.000000 0.000000 -0.191011 2.382691 9.314839 3.447159 -1.675578 2.446919 0.700495 0.289171 2.684236 2.315691 1.821054 12.740466 -0.887963 -5.131489 21.885177 -24.050134 2.359382 4.958682 -67.282683 -8.357018 12.555645 13.702419 -31.208248 13.697686 -4.435454 -12.342592 -0.791165 25.038866 -2.964566 4.290526 63.987661 -1.429436 4.761252 -23.367575 15.032344 -4.616425 4.635386 4.422584 -3.152119 
1.950430 0.635000 0.987761 -95.839522 1.301120 80.413922 1.190339 -1.651909 5.960299 -2.606777 -5.272033 13.599718 4.462333 13.043802 -22.026178 0.000000 -0.000000 0.000000 3.354192 -0.407977 5.645134 2.372034 -1.219077 13.042569 2.813261 -3.191156 -16.453480 0.000000 -0.000000 0.000000 -0.500697 2.409224 8.772790 3.360660 -1.548298 2.717651 0.592450 0.360158 2.791742 2.530230 1.876742 13.567194 -0.990623 -5.285385 22.267793 -23.923341 3.161523 5.075074 -67.508700 -8.050380 12.525890 13.445776 -30.875195 14.198000 -4.521104 -12.250270 -0.595923 25.063421 -3.425502 4.307899 64.531024 -1.111925 4.920267 -23.298638 14.602945 -4.530255 5.306787 4.181574 -3.366072 
1.950787 0.634328 0.988713 -95.556241 0.981479 80.828618 1.170511 -1.248590 6.689690 -2.685792 -5.380404 10.960104 4.376201 12.334757 -20.771520 0.000000 -0.000000 0.000000 2.822543 -0.539365 5.530255 2.522308 -1.430592 12.256802 2.848302 -2.926130 -16.017073 0.000000 -0.000000 0.000000 -0.743977 2.383678 8.351483 3.195950 -1.483454 3.085325 0.542660 0.387825 2.693514 2.615259 1.943444 14.252318 -0.998027 -5.169929 22.553557 -23.771749 3.752561 5.213029 -67.801538 -7.635267 12.207191 13.781285 -30.600167 13.904592 -6.200366 -11.898297 -0.607415 24.982454 -3.790808 4.459399 65.049411 -0.902131 4.887241 -23.338550 14.475938 -4.237879 7.588093 3.794115 -3.712516 
1.951671 0.633612 0.989215 -95.093725 0.763458 81.619590 1.268763 -0.975781 6.809479 -2.797995 -5.442051 8.631643 4.237023 11.455364 -19.461373 0.000000 -0.000000 0.000000 2.346209 -0.648134 5.124519 2.739200 -1.874472 11.225880 2.811661 -2.652035 -15.489073 0.000000 -0.000000 0.000000 -0.863099 2.305139 7.948212 3.067272 -1.417586 3.057421 0.491642 0.413499 2.550222 2.640631 1.932993 14.883560 -0.927000 -5.108810 22.414920 -23.667183 4.177714 5.434632 -67.898027 -7.095096 11.953040 14.052240 -29.861219 13.775589 -7.286852 -11.630240 -0.603112 24.876564 -4.120782 4.697371 65.435437 -0.893393 4.864950 -23.245501 14.517602 -3.922333 8.256745 3.663261 -3.904250 
1.953699 0.632775 0.989212 -94.315600 0.715257 82.411347 1.473312 -0.685560 6.347735 -2.906869 -5.722107 7.216803 3.991307 10.614121 -18.650394 0.000000 -0.000000 0.000000 1.993826 -1.176125 4.719780 3.041788 -2.151607 10.103324 2.776342 -2.438600 -14.904435 0.000000 -0.000000 0.000000 -0.758395 2.288706 7.827816 2.976809 -1.606654 2.925517 0.452362 0.333227 2.497691 2.631631 2.020081 15.015388 -0.814069 -4.931388 22.232051 -23.579663 4.267646 5.651419 -67.859333 -6.654995 11.780893 14.066793 -28.539475 14.189195 -6.274644 -11.764685 -0.599778 24.742417 -4.258676 4.866632 65.631154 -0.777359 4.869152 -22.971414 14.583813 -3.643877 6.919378 3.781815 -3.993427 
1.955882 0.631950 0.989154 -93.533380 0.698047 83.005587 1.563671 -0.676449 6.071779 -2.903680 -5.882500 5.866741 3.840648 10.141925 -17.865647 0.000000 -0.000000 0.000000 1.678453 -1.413845 4.550889 3.436219 -2.451632 8.936749 2.769030 -2.442927 -14.225330 0.000000 -0.000000 0.000000 -0.600527 2.348967 7.898909 2.923941 -1.804350 2.933947 0.400212 0.289371 2.543222 2.603011 1.768189 15.367886 -0.510349 -5.462528 21.795419 -23.585727 4.099536 5.630781 -67.702453 -6.426082 11.637346 14.247087 -26.980275 13.695499 -5.676835 -11.587628 -0.810311 24.834524 -4.138740 4.925285 65.530979 -0.614553 4.881127 -22.908996 14.494109 -4.020528 5.081436 3.819331 -3.738508 
